<?xml version="1.0" encoding="UTF-8"?>
<svg id="Idea_and_discussion" data-name="Idea and discussion" xmlns="http://www.w3.org/2000/svg" viewBox="0 0 1547.2 1430.14">
  <defs>
    <style>
      .cls-1 {
        fill: #fff;
      }

      .cls-2 {
        fill: #382525;
      }

      .cls-3 {
        fill: #f6bb41;
      }

      .cls-4 {
        fill: #a384a5;
      }

      .cls-5 {
        fill: #2c323a;
      }

      .cls-6 {
        fill: #1a1d21;
      }

      .cls-7 {
        fill: #d26c4e;
      }

      .cls-8 {
        fill: #542505;
      }

      .cls-9 {
        fill: #dd9fdd;
      }

      .cls-10 {
        fill: #d89f79;
      }

      .cls-11 {
        fill: #915d38;
      }

      .cls-12 {
        fill: #c9e1dc;
      }

      .cls-13 {
        fill: #d1cbd1;
      }

      .cls-14 {
        fill: none;
        stroke: #fff;
        stroke-linecap: round;
        stroke-linejoin: round;
        stroke-width: 3.33px;
      }

      .cls-15 {
        fill: #686368;
      }
    </style>
  </defs>
  <g id="Back">
    <polygon class="cls-4" points="1361.03 1383.44 32.09 718.97 1361.03 54.5 1361.03 1383.44"/>
    <path class="cls-1" d="m1025.26,446.06c-70.73,112.16,301.66,356.73,410.15,233.76,124.76-141.41-313.73-386.66-410.15-233.76Z"/>
    <path class="cls-1" d="m230.51,758.52c177.62,86.05,417.89-284.18,226.14-391.34C210.25,229.49,6.44,649.97,230.51,758.52Z"/>
    <path class="cls-4" d="m53.61,862.71c6.43,16.69,40.55-.09,32.24-15.51-6.19-11.5-39.32-2.84-32.24,15.51Z"/>
    <path class="cls-9" d="m765.62,408.09c9.01,4.89,34.05,20.09,49.57,45.28.68,1.1,1.34,2.23,1.98,3.38.15.27.29.54.44.81.47.86.93,1.73,1.38,2.61.19.37.37.74.55,1.11.41.84.81,1.69,1.2,2.55.16.36.33.71.48,1.07.52,1.2,1.03,2.42,1.51,3.66.22.6.43,1.2.68,1.78.01.04.03.08.04.11h.01c4.42,10.12,13.22,17.89,23.99,20.93,3.8,3.32,8.73,5.91,14.95,5.93,14.86.06,24.31-8.71,25.16-19.7,4.54-6.17,7.23-13.79,7.23-22.05,0-2.38-.25-4.71-.67-6.97h.02c-.01-.06-.03-.11-.04-.16-.27-1.41-.62-2.79-1.04-4.13-.3-1.28-.56-2.56-.81-3.83-.13-.67-.25-1.34-.36-2-.1-.54-.19-1.08-.28-1.62-.15-.9-.28-1.79-.4-2.68-.03-.24-.07-.49-.1-.73-.14-1.04-.27-2.08-.38-3.11-4.19-39.12,11.99-70.44,11.99-70.44h-.04c8.98-15.93,14.13-34.32,14.13-53.92,0-9.54-1.22-18.8-3.5-27.63l-192.59,96.3c11.75,14.69,27.18,26.3,44.89,33.44Z"/>
    <circle class="cls-1" cx="1317.03" cy="230.17" r="26.21" transform="translate(790.42 1459.08) rotate(-76.72)"/>
    <rect class="cls-1" x="1210.13" y="270.76" width="118.68" height="15.68" transform="translate(173.82 977.69) rotate(-44.92)"/>
    <path class="cls-1" d="m1384.45,232.82s-.03,0-.04,0l-262.43-6.85c-.92-.02-1.64-.79-1.62-1.71.02-.92.77-1.67,1.71-1.62l262.43,6.85c.92.02,1.64.79,1.62,1.71-.02.9-.76,1.62-1.66,1.62Z"/>
    <rect class="cls-1" x="1312.45" y="74.41" width="9.15" height="139.1"/>
    <circle class="cls-14" cx="1317.03" cy="230.17" r="228.51" transform="translate(222.99 998.69) rotate(-45)"/>
    <path class="cls-1" d="m176.49,748.72c-44.01,0-118.48-4.01-155.15-29.01C8.14,710.7.96,699.68,0,686.95c-.07-.92.62-1.71,1.53-1.78.91-.08,1.71.62,1.78,1.53.87,11.67,7.57,21.85,19.89,30.26,27.53,18.77,83.5,28.9,157.58,28.42,59.58-.36,125.45-8.09,160.19-18.81,107.97-33.3,244.47-133.1,354.15-213.28,67.95-49.68,126.64-92.58,158.53-104.27.86-.32,1.82.13,2.13.99.32.86-.13,1.82-.99,2.13-31.45,11.52-89.96,54.3-157.71,103.83-109.88,80.33-246.63,180.31-355.13,213.78-35.02,10.8-101.29,18.6-161.16,18.95-1.41,0-2.85.01-4.33.01Z"/>
    <path class="cls-9" d="m206.71,744.78c1.55,1.06,3.14,2.1,4.75,3.13,50.68-2.28,101.4-9.17,130.51-18.15,32.87-10.14,68.35-26.39,104.88-46.35,2.04-2.34,4.05-4.72,6.03-7.13-39.03,21.78-76.96,39.52-111.89,50.3-29.76,9.18-82.36,16.16-134.28,18.21Z"/>
  </g>
  <g id="Lightbulb">
    <path class="cls-1" d="m1323.09,1127.52c-16.73,0-36.34-1.48-59.13-4.87-7.36-1.1-14.9-2.21-22.61-3.35-132.7-19.61-314.44-46.46-486.21-112.49-93.9-36.09-175.49-80.66-242.52-132.46-78.22-60.45-139.42-132.85-181.91-215.19-27.87-54.02-24.66-110.32,8.39-146.94,14.44-16.01,33.5-26.82,55.12-31.28,22.84-4.71,47.98-2.07,72.71,7.62,126.83,49.73,366.09,128.8,543.52,99.6,44.09-7.26,79.88-18.96,106.37-34.79,23.3-13.92,39.02-31.11,45.48-49.7,8.14-23.44,1.72-48.29-18.07-69.99-18.98-20.81-48.76-36.69-83.84-44.7-39.54-9.03-84.4-7.88-129.73,3.32-.9.22-1.79-.32-2.01-1.22-.22-.89.32-1.79,1.22-2.01,45.84-11.32,91.23-12.48,131.27-3.33,35.74,8.16,66.12,24.39,85.56,45.7,20.65,22.64,27.31,48.68,18.75,73.32-8.42,24.27-39.69,67.8-154.45,86.68-25.46,4.19-53.07,6.28-82.71,6.28-68.54,0-148.04-11.17-237.52-33.43-72.29-17.99-148.01-42.42-225.05-72.63-47.2-18.51-94.77-9.77-124.15,22.79-32.09,35.57-35.12,90.43-7.9,143.19,181.07,350.95,636.22,418.19,908.17,458.37,7.71,1.14,15.25,2.25,22.62,3.35,89.29,13.29,133.33-3.18,137.36-25.39,3.93-21.63-29.74-51.62-101.69-67.09-.9-.19-1.47-1.08-1.28-1.98.19-.9,1.08-1.47,1.98-1.28,33.81,7.27,61.67,18.26,80.56,31.81,17.58,12.6,25.99,26.49,23.7,39.13-3.07,16.91-26.94,32.96-82,32.96Z"/>
    <path class="cls-3" d="m944.99,320.25h-.04c8.98-15.93,14.13-34.32,14.13-53.92,0-60.79-49.28-110.08-110.08-110.08s-110.08,49.28-110.08,110.08c0,46.25,28.54,85.81,68.95,102.1,10.69,5.8,43.98,26.13,57.12,60.46.22.6.43,1.2.68,1.78.01.04.03.08.04.11h.01c5.74,13.15,18.85,22.35,34.12,22.35,20.56,0,37.23-16.67,37.23-37.23,0-2.38-.25-4.71-.67-6.97h.01c-.01-.06-.03-.11-.04-.16-.27-1.41-.62-2.79-1.04-4.13-10.55-45.36,9.65-84.41,9.65-84.41Z"/>
    <path class="cls-4" d="m904.69,457.66c15.59.06,25.25-9.58,25.25-21.33,0-1.36-.14-2.69-.39-3.98h0s-1.68-7.83-1.96-10.44c0,0,0,0,0,0-12.38,11.53-48.16,15.66-48.16,15.66,1.66,2.69,9.08,20.02,25.25,20.08Z"/>
    <path class="cls-1" d="m865,428.89c.22.6.43,1.2.68,1.78.01.04.03.08.04.11h.01c5.74,13.15,18.85,22.35,34.12,22.35,20.56,0,37.23-16.67,37.23-37.23,0-2.38-.25-4.71-.67-6.97h.01c-.01-.06-.03-.11-.04-.16-.27-1.41-.62-2.79-1.04-4.13-1.1-4.74-1.85-9.41-2.34-13.97,0,0,0,0-.01.01-21.67,20.17-68.37,25.42-75.53,23.01h0c2.9,4.71,5.48,9.77,7.55,15.18Z"/>
    <path class="cls-1" d="m882.28,427.65c-.79,0-1.49-.57-1.64-1.37-3.33-18.84-17.73-55.86-35.11-86.88-2.6,1.61-5.6,2.83-8.93,3.63-16.19,3.87-37.54-2.76-49.66-15.42-16.96-17.72-16.28-31.5-9.99-38.48,6.67-7.4,21.64-9.14,36.26,2.2,11.24,8.72,22.85,24.85,33.36,43.24,2.65-2.27,4.91-5.38,6.2-9.64.6-1.98,1.09-4.41,1.61-6.98,1.44-7.13,2.93-14.51,7.41-17.06,5.43-3.09,11.9,1.72,17.6,5.97,2.63,1.96,5.12,3.81,7.28,4.78,1.09.49,2.17.92,3.24,1.3-2.48-24.82-2.42-47.89,2-61.46,5.08-15.59,15.62-24.25,26.86-22.05,11.59,2.27,23.2,16.81,21.29,43.39-.83,11.51-8.82,31.79-24.02,40.85-6.88,4.1-14.48,5.36-22.36,3.75.72,6.24,1.61,12.74,2.68,19.47,5.23,32.85,13.85,64.14,20.97,76.09.47.79.21,1.81-.58,2.28-.79.47-1.81.21-2.28-.58-9.47-15.9-19.89-58.73-24.19-98.12-1.65-.5-3.32-1.13-4.98-1.88-2.49-1.12-5.11-3.08-7.9-5.15-5.13-3.82-10.43-7.76-13.97-5.75-3.16,1.8-4.56,8.72-5.8,14.83-.54,2.66-1.04,5.16-1.69,7.29-1.42,4.68-4.06,8.6-7.74,11.59,18.15,32.51,32.68,71.07,35.7,88.22.16.9-.44,1.77-1.35,1.93-.1.02-.19.03-.29.03Zm-90.5-141.06c-5.23,0-9.65,1.76-12.36,4.76-5.29,5.87-5.47,17.87,9.92,33.95,11.37,11.88,31.35,18.1,46.48,14.49,2.54-.61,5.4-1.61,8.07-3.28-10.51-18.32-21.99-34.23-32.73-42.56-6.64-5.15-13.52-7.36-19.39-7.36Zm101.52,27.36c7.46,1.8,14.51.76,21.04-3.14,14.16-8.45,21.63-27.44,22.4-38.23,1.76-24.56-8.41-37.89-18.61-39.88-9.64-1.88-18.47,5.71-23.06,19.81-4.08,12.54-4.65,34.31-1.77,61.44Z"/>
    <path class="cls-1" d="m760.91,253.89c14.82,2.56,37.26-47.22,21.08-51.29-19.12-4.81-36.36,48.64-21.08,51.29Z"/>
    <path class="cls-1" d="m755.04,281.81c9.52,1.48,11.57-19.95,2.16-19.94-7.41,0-10.73,18.62-2.16,19.94Z"/>
    <path class="cls-9" d="m791.12,139.15c17.37-7.4-3.52-107.64-43.46-87.15-33.67,17.27,23.88,95.49,43.46,87.15Z"/>
    <path class="cls-9" d="m905.7,119.5c4.94,1.79,25.87-29.32,8.89-34.34-13.82-4.09-15.74,31.85-8.89,34.34Z"/>
    <path class="cls-9" d="m700.2,259.93c-.15-10.21-71.14-26.79-68.55,7.54,2.11,27.95,68.75,6.63,68.55-7.54Z"/>
    <path class="cls-9" d="m975.43,209.81c-2.88-5.68,31.51-35.39,40.02-15.69,6.93,16.04-36.03,23.57-40.02,15.69Z"/>
    <path class="cls-9" d="m863.43,415.67c-2.73,0-4.84-.14-6.2-.32-.91-.12-1.55-.96-1.43-1.87.12-.91.96-1.55,1.87-1.43.38.05,40.7,3.52,74.31-22.69.72-.56,1.77-.44,2.33.29s.44,1.77-.29,2.33c-25.64,20-56.38,23.68-70.59,23.68Z"/>
    <path class="cls-9" d="m897.83,445.72c-18.01,0-30.43-8.81-30.63-8.95-.59-.43-.83-1.2-.59-1.89.24-.69.91-1.15,1.63-1.12,27.84,1.06,51.32-7.63,62.31-22.53-20.71,11.27-56.51,10.72-73.7,4.02-.86-.33-1.28-1.3-.95-2.15.33-.86,1.3-1.28,2.15-.95,17.91,6.98,58.86,6.87,76.57-7.6.6-.49,1.46-.5,2.07-.03.61.47.82,1.31.49,2.01-8.57,18.5-32.81,30.19-62.72,30.63,9.99,4.89,32.76,11.96,58.37-7.39.73-.55,1.78-.41,2.33.32.55.73.41,1.78-.32,2.33-13.39,10.12-26.22,13.29-37.03,13.3Z"/>
    <path class="cls-9" d="m1095.37,400.74c18.69,8.49,34.54,19.71,46.19,32.94,19.1,21.7,25.29,46.55,17.44,69.99-6.23,18.6-21.41,35.78-43.89,49.7-13.47,8.34-29.45,15.52-47.76,21.52.83.91,1.66,1.82,2.51,2.73,64.98-21.59,85.67-53.41,92.19-72.86,8.26-24.64,1.83-50.68-18.1-73.32-11.03-12.52-25.7-23.29-42.93-31.7-1.89.3-3.77.63-5.63,1Z"/>
    <path class="cls-9" d="m1381.39,1055.44c-5.93-4.25-12.75-8.25-20.35-11.96v3.71c29.82,14.9,43.35,32.63,40.78,46.79-2.13,11.75-15.47,21.89-40.78,26.87v3.46c28.46-5.52,41.81-17.4,44.05-29.74,2.3-12.63-6.12-26.53-23.7-39.13Z"/>
    <path class="cls-9" d="m458.85,489.18c.37-1.04.77-2.08,1.17-3.12-22.48-7.6-45.09-9.39-65.8-5.12-21.62,4.46-40.68,15.28-55.12,31.28-33.04,36.62-36.26,92.93-8.39,146.94,15.15,29.37,32.7,57.47,52.54,84.22.88-.56,1.77-1.12,2.65-1.7-19.23-26.04-36.74-54-52.24-84.04-27.22-52.76-24.19-107.62,7.9-143.19,27.96-30.98,72.38-40.37,117.28-25.27Z"/>
  </g>
  <g id="Girl">
    <path class="cls-1" d="m352.54,959.73c.54,0,1.08-.27,1.4-.76.5-.77.28-1.8-.49-2.3-34.94-22.64-59.82-60.13-57.88-87.22.85-11.9,7.02-20.83,17.84-25.82.83-.38,1.2-1.37.81-2.21-.38-.83-1.37-1.2-2.21-.81-11.99,5.53-18.82,15.42-19.77,28.6-2.02,28.21,23.51,67.01,59.39,90.25.28.18.59.27.9.27Z"/>
    <path class="cls-9" d="m352.54,959.73c.54,0,1.08-.27,1.4-.76.5-.77.28-1.8-.49-2.3-24.22-15.69-44.07-38.66-53.1-61.43-.34-.86-1.31-1.27-2.16-.93-.85.34-1.27,1.31-.93,2.16,9.28,23.39,29.61,46.94,54.39,63,.28.18.59.27.9.27Z"/>
    <path class="cls-8" d="m404.13,807.53h398.04l47.16,371.09h-484.22l-36.3-285.6c-5.77-45.37,29.59-85.5,75.32-85.5Z"/>
    <path class="cls-5" d="m793.78,1141.79c14.21-3.4,94.56-8.03,118.68-56.27,24.12-48.24-78.15-82.4-78.15-82.4l-57.8,46.22,17.27,92.45Z"/>
    <path class="cls-10" d="m971.89,1178.52c-95.76-7.27-141.7-94.73-188.84-162.28-55.02-78.84,134.49-23.16,134.49-23.16l54.36,185.44Z"/>
    <path class="cls-5" d="m346.85,1131.34c4.23,27.73,60.88,34.67,101.81,19.44,27.01-10.05-35.72-131.16-35.72-131.16,0,0-74.27,58.13-66.09,111.72Z"/>
    <path class="cls-7" d="m889.81,1090.88s-9.56-80.03-13.21-104.41c-3.65-24.38,35.81-12.41,35.81-12.41l-22.6,116.82Z"/>
    <path class="cls-10" d="m458.85,1178.62c-41.44-1.64-76.21-63.77-82.24-146-6.03-82.23,90.69-83.14,90.69-83.14l-8.45,229.14Z"/>
    <path class="cls-9" d="m500.86,766.78s-72.93,0-115.11,54.97c-35.82,46.69-56.44,230.2-38.9,309.58,1.64-41.01,45.5-79.93,116.21-69.24,57.74-64.41,37.8-295.31,37.8-295.31Z"/>
    <path class="cls-7" d="m425.85,1124.01s-6.19-32.55-5.58-47.16c.61-14.62,9.53-1.51,9.53-1.51l-3.95,48.67Z"/>
    <path class="cls-7" d="m450.12,777.83s3.92,60.53,41.61,77.99v-32.24l-41.61-45.76Z"/>
    <path class="cls-7" d="m450.12,1044.32l-22.98,35.08s-28.09,7.67-37.78,21.19c-3.38-10.5-6.22-21.8-8.41-33.75l69.17-22.52Z"/>
    <path class="cls-1" d="m484.67,1021.63c-5.58,16.5-12.66,30.48-21.61,40.46-70.71-10.69-114.57,28.23-116.21,69.24-2.94-13.29-4.8-29.51-5.7-47.51,16.8-41.31,68.36-73.56,143.53-62.2Z"/>
    <path class="cls-9" d="m704.8,766.78c13.79,2.92,89.9,37.06,108.95,59.5,40.93,48.22,122.87,180.03,122.87,180.03,0,0-129.86,27.04-139.68,76.01,16.08,42.31,11.36,96.3,11.36,96.3h-345.39l69.28-366.65,172.61-45.19Z"/>
    <path class="cls-1" d="m591.74,889.52c45.14,0,84.53-23.03,98.44-34.41.71-.58.82-1.63.23-2.34-.58-.71-1.63-.81-2.34-.23-17.31,14.16-74.96,46.78-133.1,27.98-.88-.28-1.81.2-2.09,1.07-.28.87.2,1.81,1.07,2.09,12.76,4.13,25.49,5.84,37.8,5.84Z"/>
    <path class="cls-1" d="m785.66,1053.26c19.36-45.29,88.19-65.57,100.61-68.24l8.1,32.64c-38.85,12.26-91.33,34.23-97.43,64.67l-11.27-29.06Z"/>
    <path class="cls-7" d="m683.3,939.16c29.59-30.37,2.54-87.07-33.67-112.43l44.61-26.68s28.97,55.71,23.62,91.52c-5.35,35.81-34.56,47.6-34.56,47.6Z"/>
    <path class="cls-12" d="m894.37,1017.65c-4.21,1.33-8.57,2.77-13.02,4.32-1.76-13.87-3.43-26.57-4.58-34.4,4.27-1.3,7.57-2.14,9.51-2.56l8.1,32.64Z"/>
    <path class="cls-2" d="m695.09,649.69c-22.66-5.11-65.44,89.32-31.26,92.17,34.18,2.85,53.92-87.06,31.26-92.17Z"/>
    <path class="cls-7" d="m754.17,915.68c9.74,53.32,38.03,101.91,61.12,139.88-9.6,8.01-16.4,16.94-18.37,26.76,0,0-22.9-44.09-42.76-166.64Z"/>
    <path class="cls-6" d="m581.8,826.57c-47.9,19-167.45-177.14-75.23-191.35,92.22-14.21,119.45,173.8,75.23,191.35Z"/>
    <path class="cls-10" d="m677.19,672.35s-13.7,143.62-22.48,174.32c-43.31,43.85-115.87,16.99-115.87,16.99,25.42-31.25,42.21-132.59,16.69-163.6,28.93-50.38,121.65-27.71,121.65-27.71Z"/>
    <path class="cls-7" d="m557.29,700.88l86.01-30.3c19.29-.57,33.88,1.77,33.88,1.77,0,0-4.58,48-10.14,94.43-36.53-2.68-98.16-44.06-109.75-65.91Z"/>
    <path class="cls-1" d="m671.98,811.97c-9.87,6.74-87.25,66.5-127.09,12.04l-12.71,24.12c6.65,21.01,70.34,48.24,155.23-15.71l-15.44-20.45Z"/>
    <path class="cls-12" d="m649.63,826.72l.05-.03c.94-.55,1.86-1.1,2.76-1.65l20.26-12.12,14.72,19.5c-6.09,4.59-12.07,8.69-17.93,12.38-6.03-6.94-12.77-13.11-19.86-18.08Z"/>
    <path class="cls-2" d="m672.86,641.76s.09.23.28.67c.09.22.2.49.34.82.17.39.21.55.3.79.08.26.19.43.3.84.11.38.25.79.37,1.25.23.93.49,2,.65,3.27.37,2.53.49,5.81.05,9.82-.41,4-1.44,8.71-3.02,13.91-1.58,5.21-3.73,10.9-6.28,16.94-2.55,6.05-5.49,12.44-8.58,19.15-3.09,6.71-6.33,13.73-9.37,21.11-3.02,7.39-5.89,15.13-7.84,23.41-.98,4.13-1.69,8.41-2.01,12.79-.28,4.38-.17,8.89.66,13.35l.15.83.07.38.05.17.1.35.39,1.4c.22.87.59,1.99.93,3.05.18.53.34,1.07.53,1.58l.57,1.47c.37.99.76,1.95,1.2,2.89,1.67,3.79,3.62,7.33,5.71,10.63,4.19,6.6,8.86,12.27,13.35,17.46,4.51,5.17,8.87,9.86,12.78,14.25,3.92,4.38,7.39,8.47,10.31,12.23,2.91,3.76,5.25,7.19,7.03,10.11.92,1.45,1.63,2.8,2.3,3.96.61,1.18,1.15,2.19,1.55,3.02.78,1.67,1.2,2.57,1.2,2.57,0,0-.3-.94-.85-2.71-.29-.88-.7-1.95-1.15-3.22-.51-1.24-1.05-2.7-1.78-4.28-1.4-3.18-3.31-6.96-5.76-11.15-2.44-4.19-5.42-8.8-8.77-13.71-3.34-4.91-7.06-10.14-10.76-15.72-3.68-5.58-7.36-11.51-10.29-17.85-1.46-3.17-2.72-6.42-3.69-9.75-.26-.83-.48-1.66-.67-2.5l-.3-1.26c-.09-.41-.15-.8-.23-1.2-.15-.79-.3-1.53-.43-2.56l-.2-1.44-.05-.36-.03-.18c.07.33.01.05.03.1v-.08s-.08-.6-.08-.6c-.79-6.4.31-13.4,2.38-20.33,2.06-6.95,5.06-13.87,8.29-20.64,3.26-6.77,6.79-13.41,10.25-19.92,6.94-13.01,13.56-25.53,17.95-37.5,2.2-5.97,3.86-11.79,4.77-17.29.94-5.48,1.13-10.62.76-14.93-.16-2.16-.47-4.1-.8-5.79-.17-.84-.37-1.63-.53-2.34-.16-.7-.42-1.49-.6-2.11-.2-.64-.39-1.26-.49-1.52-.12-.33-.21-.61-.29-.84-.16-.45-.24-.68-.24-.68-2-5.72-8.26-8.73-13.97-6.73-5.72,2-8.73,8.26-6.73,13.97.07.19.15.41.23.59Z"/>
    <path class="cls-5" d="m475.32,679.97s.11.24.32.7c.22.47.49,1.09,1.03,2.19.51,1.08,1.11,2.25,1.84,3.64.73,1.38,1.58,2.94,2.57,4.64,3.91,6.84,9.95,15.94,17.52,26.28,7.56,10.36,16.64,22.02,26.18,34.49,9.51,12.48,19.55,25.78,28.36,39.58,4.37,6.9,8.45,13.94,11.66,21.02,1.61,3.54,2.98,7.08,4,10.58.52,1.76.87,3.44,1.3,5.22l.34,1.46.25,1.27c.17.83.33,1.68.44,2.58,1.05,7.06.71,14.09-1.12,20.34-1.8,6.27-5.13,11.7-9.3,15.77-4.15,4.11-9.06,6.81-13.68,8.53-4.63,1.74-9,2.54-12.61,2.94-3.62.39-6.51.44-8.48.42-1.97-.05-3.03-.07-3.03-.07,0,0,1.04.18,2.99.51,1.96.3,4.85.68,8.58.81,3.73.13,8.33-.03,13.54-1.17,5.18-1.12,11.06-3.27,16.57-7.33,5.51-4,10.52-9.94,13.8-17.21,3.32-7.26,4.97-15.69,4.94-24.34.02-1.07-.02-2.19-.09-3.33l-.09-1.69-.13-1.5-.06-.75-.03-.38-.02-.19v-.09c.01.1-.04-.24-.04-.24l-.29-1.67c-.2-1.11-.44-2.21-.7-3.3-1.04-4.35-2.45-8.55-4.07-12.64-3.23-8.17-7.25-15.92-11.51-23.44-8.58-15-18.16-29.06-27.13-42.11-8.99-13.03-17.42-25.02-24.23-35.39-6.84-10.35-12-19.08-15.1-25.18-.78-1.52-1.44-2.88-1.99-4.06-.54-1.17-1-2.19-1.29-2.91-.3-.69-.6-1.46-.79-1.92-.19-.47-.29-.72-.29-.72h0c-2.26-5.63-8.64-8.35-14.26-6.09-5.62,2.26-8.35,8.64-6.09,14.26.06.15.14.34.21.49Z"/>
    <path class="cls-10" d="m538.84,663.88l-4.25-34.5c-111.63-44.62-89.32,107.28,4.25,34.5Z"/>
    <path class="cls-7" d="m524.47,654.23c.46,0,.91-.19,1.24-.55.61-.68.56-1.74-.13-2.35-18.04-16.18-32.36-16.54-41.2-13.98-8.22,2.37-13.13,7.7-13.99,10.73-.25.88.26,1.8,1.14,2.05.89.25,1.8-.26,2.05-1.14.53-1.86,4.63-6.4,11.71-8.45,8.03-2.32,21.15-1.9,38.06,13.26.32.28.71.43,1.11.43Z"/>
    <path class="cls-2" d="m650.46,542.06s.53.58,1.53,1.67c.36.39.76.82,1.2,1.29.22.23.46.48.7.73.22.21.44.43.67.65.46.44.96.92,1.49,1.42.53.47,1.09.98,1.68,1.51,4.73,4.16,11.38,9.03,19.25,14.18,7.87,5.17,16.99,10.71,26.56,16.68,9.56,5.97,19.59,12.37,29.08,19.33,4.75,3.47,9.34,7.1,13.64,10.87,4.28,3.78,8.29,7.71,11.74,11.81,3.48,4.09,6.38,8.35,8.56,12.68,1.06,2.17,1.96,4.35,2.64,6.52.64,2.17,1.18,4.33,1.4,6.43.57,4.22.26,8.21-.47,11.69-.21.86-.37,1.72-.61,2.52-.24.8-.48,1.58-.71,2.32-.56,1.45-1.03,2.82-1.61,4-.27.59-.52,1.17-.78,1.69-.27.52-.53,1-.77,1.45-.24.45-.46.87-.67,1.26-.23.37-.43.71-.61,1.01-.74,1.21-1.13,1.86-1.13,1.86,0,0,.5-.57,1.43-1.65.23-.27.5-.57.78-.9.27-.35.56-.73.88-1.14.32-.41.66-.85,1.02-1.33.35-.48.7-1.01,1.08-1.57.79-1.09,1.51-2.4,2.35-3.81.37-.73.75-1.5,1.15-2.29.39-.8.71-1.67,1.09-2.55,1.41-3.56,2.51-7.88,2.7-12.74.15-2.43-.03-4.97-.34-7.58-.35-2.61-.95-5.27-1.73-7.96-1.63-5.34-4.09-10.72-7.15-15.89-3.04-5.2-6.66-10.21-10.56-15.06-3.92-4.84-8.13-9.52-12.48-14.01-8.69-9-17.88-17.32-26.44-24.96-8.57-7.63-16.54-14.57-22.97-20.57-6.44-5.98-11.24-11.03-13.93-14.42-.33-.42-.64-.82-.93-1.19-.26-.36-.51-.7-.74-1.02-.11-.15-.22-.3-.32-.45-.06-.11-.12-.21-.18-.31-.12-.19-.23-.37-.32-.52-.74-1.15-1.13-1.76-1.13-1.76l-.02-.03c-4.94-7.66-15.15-9.87-22.82-4.93-7.66,4.94-9.87,15.15-4.93,22.82.5.77,1.11,1.56,1.71,2.22Z"/>
    <path class="cls-2" d="m627.38,457.52s.53.58,1.53,1.67c.36.39.76.82,1.2,1.29.22.23.46.48.7.73.22.21.44.43.67.65.46.44.96.92,1.49,1.42.53.47,1.09.98,1.68,1.51,4.73,4.16,11.38,9.03,19.25,14.18,7.87,5.17,16.99,10.71,26.56,16.68,9.56,5.97,19.59,12.37,29.08,19.33,4.75,3.47,9.34,7.1,13.64,10.87,4.28,3.78,8.29,7.71,11.74,11.81,3.48,4.09,6.38,8.35,8.56,12.68,1.06,2.17,1.96,4.35,2.64,6.52.64,2.17,1.18,4.33,1.4,6.43.57,4.22.26,8.21-.47,11.69-.21.86-.37,1.72-.61,2.52-.24.8-.48,1.58-.71,2.32-.56,1.45-1.03,2.82-1.61,4-.27.59-.52,1.17-.78,1.69-.27.52-.53,1-.77,1.45-.24.45-.46.87-.67,1.26-.23.37-.43.71-.61,1.01-.74,1.21-1.13,1.86-1.13,1.86,0,0,.5-.57,1.43-1.65.23-.27.5-.57.78-.9.27-.35.56-.73.88-1.14.32-.41.66-.85,1.02-1.33.35-.48.7-1.01,1.08-1.57.79-1.09,1.51-2.4,2.35-3.81.37-.73.75-1.5,1.15-2.29.39-.8.71-1.67,1.09-2.55,1.41-3.56,2.51-7.88,2.7-12.74.15-2.43-.03-4.97-.34-7.58-.35-2.61-.95-5.27-1.73-7.96-1.63-5.34-4.09-10.72-7.15-15.89-3.04-5.2-6.66-10.21-10.56-15.06-3.92-4.84-8.13-9.52-12.48-14.01-8.69-9-17.88-17.32-26.44-24.96-8.57-7.63-16.54-14.57-22.97-20.57-6.44-5.98-11.24-11.03-13.93-14.42-.33-.42-.64-.82-.93-1.19-.26-.36-.51-.7-.74-1.02-.11-.15-.22-.3-.32-.45-.06-.11-.12-.21-.18-.31-.12-.19-.23-.37-.32-.52-.74-1.15-1.13-1.76-1.13-1.76l-.02-.03c-4.94-7.66-15.15-9.87-22.82-4.93-7.66,4.94-9.87,15.15-4.93,22.82.5.77,1.11,1.56,1.71,2.22Z"/>
    <path class="cls-2" d="m466.87,484.2s-.19.77-.54,2.21c-.13.51-.27,1.08-.43,1.71-.08.31-.17.64-.26.98-.09.29-.18.59-.27.9-.19.61-.4,1.27-.62,1.97-.23.67-.48,1.38-.74,2.13-2.14,5.93-5.62,13.39-10.03,21.7-4.4,8.32-9.72,17.57-15.23,27.41-5.5,9.84-11.21,20.28-16.16,30.95-2.49,5.33-4.76,10.72-6.71,16.1-1.93,5.38-3.55,10.75-4.59,16.01-1.08,5.26-1.56,10.39-1.39,15.24.12,2.41.38,4.75.83,6.98.49,2.21,1.06,4.36,1.87,6.31,1.54,3.97,3.73,7.32,6.04,10.01.6.65,1.15,1.33,1.74,1.91.6.59,1.18,1.15,1.74,1.69,1.19,1,2.27,1.98,3.34,2.73.53.39,1.02.77,1.5,1.1.49.32.95.62,1.38.9.43.28.83.54,1.19.78.38.22.72.41,1.03.59,1.23.71,1.89,1.09,1.89,1.09,0,0-.71-.26-2.05-.75-.34-.12-.71-.26-1.12-.41-.4-.17-.84-.37-1.32-.57-.48-.21-.99-.43-1.54-.67-.54-.25-1.1-.55-1.7-.86-1.22-.58-2.48-1.38-3.9-2.21-.68-.47-1.38-.95-2.11-1.45-.73-.51-1.43-1.12-2.19-1.71-2.95-2.44-6-5.69-8.5-9.86-1.3-2.06-2.37-4.36-3.36-6.81-.95-2.46-1.71-5.07-2.32-7.81-1.15-5.47-1.58-11.36-1.39-17.37.16-6.02.92-12.15,2-18.29,1.1-6.13,2.53-12.26,4.18-18.29,3.28-12.08,7.31-23.79,11.13-34.61,3.84-10.82,5.67-28.28,8.41-36.64,2.76-8.35,3.12-6.91,3.85-11.17.08-.52,3.37-1.66,3.44-2.12.06-.45.11-.86.16-1.25.02-.19.05-.37.07-.55,0-.12,0-.24,0-.36.01-.23.02-.43.03-.61.09-1.36.15-2.09.15-2.09v-.03c.64-9.09,8.52-15.95,17.62-15.32,9.09.63,15.95,8.52,15.32,17.61-.06.92-.23,1.9-.43,2.77Z"/>
    <path class="cls-7" d="m652.65,627.27l-9.98-33.29c84.27-85.74,124.91,62.31,9.98,33.29Z"/>
    <path class="cls-3" d="m704.76,687.08c10.05,0,19.63-5.9,23.8-15.72,5.58-13.11-.55-28.31-13.65-33.88-.84-.36-1.81.03-2.17.87-.36.84.03,1.81.87,2.17,11.43,4.86,16.77,18.12,11.91,29.55-2.36,5.54-6.73,9.83-12.31,12.07-5.58,2.25-11.71,2.19-17.24-.17-5.54-2.36-9.83-6.73-12.07-12.31-2.25-5.58-2.19-11.71.17-17.24.36-.84-.03-1.81-.87-2.17-.84-.36-1.81.03-2.17.87-2.7,6.35-2.77,13.37-.19,19.77,2.58,6.4,7.49,11.41,13.84,14.11,3.29,1.4,6.71,2.06,10.08,2.06Z"/>
    <path class="cls-2" d="m683.4,472.74c15.08,45.14,77.34,175.75,82,208.23,2.59,18.09-9.37,30.3-9.37,30.3,0,0,19.78,50.98,16.49,80.03-2.11,18.65-30.7,43.85-30.15,54.82.55,10.96,18.1,99.05-40.75,116.24-49.34,14.41-64.95-30.72-64.95-30.72,0,0,32.54,31.95,52.72,3.29,40-56.83-34.55-119.69-35.28-154.59-.85-40.38,46.99-86.5,32.54-106.56-14.45-20.07-3.26-201.04-3.26-201.04Z"/>
    <path class="cls-2" d="m430.01,493.37c15.08,45.14,130.7,184.8,135.36,217.28,2.59,18.09-2.25,31.99-2.25,31.99,0,0-12.66,48.54-15.95,77.6-2.11,18.65-25.29,34.62-24.74,45.58.55,10.96-15.35,99.99-74.2,117.18-49.34,14.41-64.95-30.72-64.95-30.72,0,0,32.54,31.95,52.72,3.29,40-56.83-34.55-119.69-35.28-154.59-.85-40.38,46.99-86.5,32.54-106.56-14.45-20.07-3.26-201.04-3.26-201.04Z"/>
    <path class="cls-3" d="m520.19,721.94c3.37,0,6.79-.66,10.08-2.06,6.35-2.7,11.27-7.72,13.84-14.11,2.58-6.4,2.51-13.42-.19-19.77-.36-.84-1.32-1.23-2.17-.87-.84.36-1.23,1.33-.87,2.17,2.36,5.54,2.42,11.66.17,17.24-2.25,5.58-6.54,9.95-12.07,12.31-11.43,4.87-24.69-.48-29.55-11.91-4.86-11.43.48-24.69,11.91-29.55.84-.36,1.23-1.33.87-2.17-.36-.84-1.32-1.23-2.17-.87-13.11,5.58-19.23,20.78-13.65,33.88,4.18,9.82,13.75,15.72,23.8,15.72Z"/>
    <path class="cls-7" d="m527.48,655.77c-5.54,15.26-47.83.25-41.44-12.49,7.69-15.33,45.34,1.74,41.44,12.49Z"/>
    <path class="cls-10" d="m685.23,652.49c-6.38,25.65-46.96,58.79-59.02,61.53-12.06,2.74-60.57-8.71-70.67-13.95-31.06-16.11-115.39-112.58-65.27-204.22,43.36-79.3,154.77-46.78,179.8,16.45,12.5,31.57,31.07,76.31,15.17,140.2Z"/>
    <path class="cls-7" d="m575.61,597.18c0-24.91-20.2-45.11-45.11-45.11-13.75,0-26.06,6.16-34.34,15.87,7.75-13.68,22.43-22.92,39.27-22.92,24.91,0,45.11,20.2,45.11,45.11,0,11.16-4.06,21.37-10.78,29.24,3.71-6.55,5.84-14.12,5.84-22.19Z"/>
    <path class="cls-2" d="m542.68,535.46c-21.79,1.01-49.68,28.55-52.77,35.58,4.42-32.3,20.33-37.4,29.23-40.82,15.51-5.95,23.54,5.24,23.54,5.24Z"/>
    <path class="cls-2" d="m542.68,537.13c.08,0,.15,0,.23-.02.91-.13,1.54-.97,1.42-1.88-.08-.55-1.97-13.5-10.65-19.78-.74-.54-1.79-.37-2.32.37-.54.74-.37,1.78.37,2.32,7.54,5.46,9.29,17.43,9.31,17.55.12.83.83,1.43,1.64,1.43Z"/>
    <path class="cls-1" d="m488.66,590.13c0-25.79,20.98-46.77,46.77-46.77s46.77,20.98,46.77,46.77-20.98,46.77-46.77,46.77-46.77-20.98-46.77-46.77Zm3.33,0c0,23.96,19.49,43.45,43.45,43.45s43.45-19.49,43.45-43.45-19.49-43.45-43.45-43.45-43.45,19.49-43.45,43.45Z"/>
    <path class="cls-1" d="m573.58,567.7c.56,0,1.11-.29,1.43-.81,7.43-12.36,24.58-6.44,24.75-6.38.87.31,1.82-.14,2.12-1.01.31-.87-.14-1.82-1.01-2.12-.2-.07-19.9-6.87-28.72,7.8-.47.79-.22,1.81.57,2.28.27.16.56.24.86.24Z"/>
    <path class="cls-7" d="m623.42,610.14s-8.06-5.85-14.78-3.67c-7.21,2.34-24.02,15.91-24.02,15.91,0,0,12.5,2.85,20.05.97,7.56-1.88,18.75-13.21,18.75-13.21Z"/>
    <path class="cls-7" d="m558.06,449.7c45.85-5.06,96.18,22.63,112,62.59,5.5,13.88,12.36,32.22,17.81,51.96-61.3,6.33-100.93-109.34-149.03-97.68,0,0,5.08-6.91,19.22-16.87Z"/>
    <path class="cls-2" d="m679.28,536.73s8.57-55.78,3.82-64.46c-23.1-42.21-76.86-69.92-110.17-72.44-14.95-1.13-21.51-1.43-21.51-1.43,0,0-63.43,3.77-95.14,41.38-84.3,99.99,38.18,190.59,38.18,190.59-30.33-60.71-17.18-171.45,44.86-150.71,37.73-54.36,122.48,55.11,139.96,57.06Z"/>
    <path class="cls-2" d="m596.81,526.12c18.51-14.35,47.03-14.72,61.23-4.67-24.32-20.5-41.56-19.2-50.02-16.32-14.74,5.02-11.2,20.99-11.2,20.99Z"/>
    <path class="cls-1" d="m598.65,558.94c0-25.79,20.98-46.78,46.77-46.78s46.77,20.98,46.77,46.78-20.98,46.77-46.77,46.77-46.77-20.98-46.77-46.77Zm3.33,0c0,23.96,19.49,43.45,43.45,43.45s43.45-19.49,43.45-43.45-19.49-43.45-43.45-43.45-43.45,19.49-43.45,43.45Z"/>
    <path class="cls-2" d="m542.27,479.84s.71-.24,2.04-.69c.83-.29,1.07-.32,1.63-.52.44-.2,1.32-.33,2.14-.55,1.69-.31,3.73-.56,6.1-.42,2.37.12,5.12.7,8.24,1.98,3.12,1.25,6.57,3.29,10.17,5.99,3.6,2.7,7.32,6.07,11.08,9.84,7.53,7.57,15.19,16.74,23.21,25.81,4.02,4.54,8.13,9.06,12.39,13.36,4.24,4.31,8.67,8.38,13.18,12.05,4.54,3.64,9.19,6.88,13.88,9.49,4.68,2.6,9.36,4.6,13.8,5.97,4.44,1.38,8.63,2.14,12.34,2.48,3.71.32,6.94.37,9.59.18,1.32-.04,2.49-.2,3.51-.29,1.02-.09,1.88-.23,2.57-.34,1.39-.21,2.13-.33,2.13-.33,0,0-.75,0-2.15.02-.7.01-1.56.03-2.58-.03-1.01-.05-2.17-.06-3.47-.21-2.59-.18-5.71-.68-9.18-1.49-3.47-.84-7.29-2.11-11.21-3.98-3.92-1.86-7.94-4.31-11.87-7.3-3.93-2.99-7.76-6.57-11.45-10.52-7.37-7.95-14.1-17.49-20.6-27.39-6.52-9.9-12.82-20.17-19.86-29.65-3.53-4.73-7.25-9.28-11.34-13.4-4.08-4.11-8.54-7.83-13.38-10.72-2.38-1.48-4.91-2.67-7.38-3.71-2.5-.98-4.98-1.78-7.39-2.31-4.81-1.1-9.18-1.29-12.69-1.19-1.77.13-3.23.16-4.77.41-1.43.2-2.91.43-3.42.54-1.38.25-2.12.39-2.12.39h-.01c-7.46,1.37-12.41,8.53-11.04,15.99,1.37,7.46,8.53,12.41,15.99,11.04.63-.12,1.31-.3,1.9-.49Z"/>
    <path class="cls-2" d="m595.84,527.16c.23,0,.47-.05.69-.15.83-.38,1.2-1.37.82-2.21-.06-.13-5.77-12.69-3.92-20.06.22-.89-.32-1.79-1.21-2.02-.89-.23-1.8.32-2.02,1.21-2.13,8.51,3.87,21.7,4.13,22.26.28.61.88.97,1.51.97Z"/>
    <path class="cls-2" d="m590.58,524.73c.29,0,.57-.07.84-.23.79-.46,1.06-1.48.6-2.27l-3.63-6.21c-.46-.79-1.48-1.06-2.27-.6-.79.46-1.06,1.48-.6,2.27l3.63,6.21c.31.53.87.82,1.44.82Z"/>
    <path class="cls-5" d="m533.88,589.65c3.71,4.14,10.07,4.48,14.2.77,4.14-3.71,4.48-10.07.77-14.2-3.71-4.14-10.07-4.48-14.2-.77-4.14,3.71-4.48,10.07-.77,14.2Z"/>
    <path class="cls-5" d="m517.65,598.13c5.74,0,7.33-5.47,8.65-9.98.99-3.39,2.11-7.24,4.7-10.03,2.18-2.35,4.85-3.46,7.86-3.33,4.96.23,10.69,3.8,14.95,9.33.74.96,2.12,1.14,3.07.4.96-.74,1.14-2.12.4-3.08-5.02-6.52-12-10.74-18.22-11.03-4.31-.2-8.22,1.44-11.28,4.73-3.29,3.55-4.63,8.11-5.69,11.78-1.79,6.13-2.57,7.48-6.21,6.57-1.17-.29-2.37.42-2.66,1.59-.29,1.17.42,2.37,1.59,2.66,1.05.26,1.99.38,2.84.38Z"/>
    <path class="cls-5" d="m646.27,557.39c-.05,5.56-4.59,10.02-10.14,9.97-5.56-.05-10.02-4.59-9.97-10.14.05-5.56,4.59-10.02,10.14-9.97s10.02,4.59,9.97,10.14Z"/>
    <path class="cls-5" d="m625.49,568.76s.1,0,.15,0c1.21-.08,2.12-1.12,2.04-2.33-.46-6.96,1.47-13.43,5.04-16.88,2.18-2.11,4.91-3.02,8.1-2.7,3.78.38,7.17,2.52,10.15,4.41,4.56,2.89,10.23,6.48,14.96-.4.69-1,.44-2.36-.56-3.05-1-.68-2.36-.43-3.05.56-2.13,3.09-3.61,2.6-9.01-.82-3.23-2.05-7.25-4.59-12.07-5.07-4.47-.44-8.48.91-11.58,3.91-4.47,4.33-6.91,12.11-6.37,20.32.08,1.16,1.04,2.05,2.19,2.05Z"/>
    <path class="cls-7" d="m669.17,666.02c1.49,2.63-46.24,48.37-46.24,48.37-4.12.18-10.02-.37-16.69-1.38,6.29-5.7,39.33-36.83,62.93-46.99Z"/>
    <path class="cls-7" d="m569.16,704.84c1.13-9.25,3.75-16.57,5.78-17.59l.8,19.38c-2.3-.6-4.52-1.2-6.58-1.79Z"/>
    <path class="cls-10" d="m669.17,666.02c-20.65,9.41-74.33,62.55-74.33,62.55,0,0,6.94-20.47,3.2-31.89-3.07-9.37-14.34-17.08-22.38-10.14-8.04,6.94-1.28,35.63-10.52,52.44-7.3,13.27-17.28,26.27-18.64,45.39-1.36,19.12.02,55.93-4,69.45l62.12,22.48c19.71-44.95,58.73-68.62,59.75-86.61.69-12.06-12.07-18.3-12.33-20.15,1.51-7.26-4.25-18.91-14.21-15.21,6.96-16.63-8.67-21.52-15.94-19.73,2.1-2.65,53.7-49.72,58.98-53.3,8.66-5.87,4.17-22.51-11.69-15.28Z"/>
    <path class="cls-7" d="m577.38,747.62c6.27-12.75,12.44-20.21,20.11-28.98-1.21,5.69-2.65,9.93-2.65,9.93,0,0-5.86,5.76-17.46,19.05Z"/>
    <path class="cls-2" d="m739.02,821.39s.28.68.82,1.96c.23.57.52,1.27.86,2.1.33.86.71,1.86,1.13,2.97,1.67,4.5,3.85,11.15,5.92,19.38,2.08,8.22,4.03,18.02,5.36,28.65,1.3,10.62,1.98,22.07,1.4,33.44-.27,5.68-.89,11.34-1.88,16.82-.99,5.48-2.39,10.78-4.24,15.71-.94,2.46-2,4.81-3.14,7.07-1.18,2.23-2.46,4.34-3.84,6.31-2.8,3.9-6,7.2-9.42,9.7-3.39,2.53-6.94,4.33-10.24,5.53-3.3,1.23-6.35,1.86-8.88,2.27-.63.1-1.24.19-1.8.27-.57.06-1.1.11-1.6.15-1,.11-1.85.17-2.54.19-1.39.06-2.12.09-2.12.09,0,0,.74.07,2.12.19.69.08,1.55.13,2.56.15.51.02,1.05.04,1.63.06.58-.01,1.2-.02,1.85-.03,2.61-.07,5.82-.3,9.43-1.12,3.61-.79,7.64-2.18,11.71-4.44,4.09-2.22,8.13-5.39,11.81-9.3,1.83-1.97,3.56-4.12,5.2-6.42,1.6-2.31,3.12-4.76,4.52-7.33,2.76-5.14,5.07-10.72,6.94-16.52,1.87-5.79,3.34-11.8,4.45-17.84,2.26-12.1,3.16-24.37,3.29-35.87.11-11.5-.57-22.25-1.62-31.47-1.05-9.22-2.47-16.92-3.69-22.34-.32-1.36-.61-2.58-.85-3.64-.28-1.08-.52-2.01-.71-2.76-.36-1.34-.55-2.06-.55-2.06-1.8-6.74-8.73-10.74-15.47-8.94-6.74,1.8-10.74,8.73-8.94,15.47.14.53.34,1.1.54,1.6Z"/>
    <path class="cls-10" d="m937.6,815.21c.74,17.88,79.81,209.07,85.7,232.47,5.89,23.4-25.58,128.02-51.41,130.84-25.83,2.83-81.13-42.46-82.01-84.41-.88-41.95-4.25-179.64-17.12-283.93,19.8-25.87,64.84,5.03,64.84,5.03Z"/>
    <rect class="cls-9" x="781.67" y="762.66" width="6.58" height="82.08" transform="translate(-192.06 1358.25) rotate(-75.25)"/>
    <path class="cls-1" d="m744.8,791.97l80.15,21.09c7.57,1.99,15.33-2.53,17.32-10.1l37.01-139.41-107.57-28.31-37.01,139.41c-1.99,7.57,2.53,15.33,10.1,17.32Z"/>
    <path class="cls-7" d="m887.79,800.61c21.59-4.77,49.82,14.6,49.82,14.6.09,2.18,1.35,6.94,3.49,13.66-7.12,7.88-46,25.19-66.58-3.75h0c-.49-4.39-1-8.72-1.52-13,2.41-4.45,7.85-8.27,14.79-11.5Z"/>
    <path class="cls-7" d="m917.04,680.23s7.43,44.17,10.09,46.79l-34.91,12.57,4.16-49.64,20.66-9.73Z"/>
    <path class="cls-1" d="m852.99,762.55c.75,6.12,4.74,15.1,20.2,15.33,22.69.33,38.32-53.49,28.34-65.16-12.71-14.88-29.59-4.65-35.06-.96h0l6.45-24.29c11.82,2.64,40.58,8.79,43.74,28.57,2.49,15.61-5.69,94.35-70.33,71.61l6.66-25.1h0Z"/>
    <path class="cls-10" d="m973.93,752.19c-1.91-5.07-36.49-45.3-55.27-43.97-18.78,1.33-21.94,20.78-21.94,20.78,0,0-7.98,3.99-10.47,8.48-2.49,4.49-1.33,11.8-1.33,11.8,0,0-7.85-.21-12.34,4.53-3.03,3.2-3.24,11.72-3.24,11.72,0,0-5.24-.5-9.23,4.74-3.99,5.24-4.87,10.47-1.62,23.4,3.25,12.93,18.71,43.37,34.41,44.05,22.83,1,31.58-12.63,38.59-18.67.86-.74,12.14-5.55,13.14-8.04,1-2.49,3.8-9.03,6.96-10.69,3.16-1.66,10.97-8.58,11.8-12.97s.42-14.39,1.5-18.21c.58-2.05,10.97-11.88,9.06-16.95Z"/>
    <path class="cls-10" d="m918.08,688.98s-12.13,12.08-24.69,7.77c-16.96-5.82-11.78-22.94-8.64-24.1,4.41-1.64,9.02,1.43,13.63,1.43,2.61,0,10.47-5.47,14.96-1.79,4.49,3.69,4.74,16.69,4.74,16.69Z"/>
    <path class="cls-12" d="m800.61,1030.86c4.98,8.64,9.94,16.9,14.68,24.7-4.18,3.49-7.83,7.16-10.78,11-.03.04-.06.08-.09.11-.38.5-.75,1-1.11,1.5-.03.05-.07.1-.1.15-.75,1.07-1.45,2.16-2.09,3.26-.05.08-.1.17-.14.25-.26.45-.5.89-.74,1.34-.07.13-.14.26-.2.39-.23.45-.45.91-.66,1.36-.04.09-.09.18-.13.27-.25.54-.48,1.09-.69,1.64-.04.1-.07.2-.11.3-.17.44-.33.89-.48,1.33-.06.17-.11.34-.17.51-.13.4-.24.79-.35,1.19-.05.16-.09.33-.14.49-.14.55-.27,1.11-.39,1.66,0,0-4.51-8.69-11.26-29.06,3.54-8.29,8.74-15.74,14.94-22.4Z"/>
    <path class="cls-1" d="m497.84,993.74c24.87,5.61,54.76,16.17,86.23,27.29,70.14,24.79,155.35,54.9,202.43,34.41,3.02,7.79,5.4,13.91,10.43,26.88.49,1.29.96,2.59,1.41,3.89-14.24,5.94-30.92,8.9-50.21,8.9-12.06,0-25.15-1.16-39.29-3.46-43.83-7.14-92.66-24.39-135.73-39.62-30.06-10.63-58.64-20.72-81.38-25.96l6.11-32.34Z"/>
    <path class="cls-1" d="m487.23,1049.89c.66.11,1.31.23,1.98.35,26.43,4.9,59.67,16.64,94.86,29.08,79.41,28.07,178.14,62.95,218.98,23.48,2.91,12.67,4.45,25.46,5.22,36.83-16.23,9.19-36.16,13.77-60.14,13.77-12.06,0-25.15-1.16-39.29-3.46-43.83-7.14-92.66-24.39-135.73-39.62-33.94-12-66-23.33-89.89-27.75-.71-.13-1.4-.25-2.09-.36l6.11-32.33Z"/>
    <path class="cls-10" d="m604.61,876.3c-27.24,66.19-40.43,211.76-72.43,253.53-28.35,37-48.42,48.83-72.74,48.81-24.32-.02-43.95-55.39-31.52-119,12.86-65.84,64.77-70.15,114.57-205.82l62.12,22.48Z"/>
    <path class="cls-7" d="m458.32,1178.59c-.16-.01-.32-.01-.48-.03-10.49-.67-20.54-5.2-29.78-12.96,2.84-1.87,5.98-3.31,9.32-4.28,0,0,0,0,0,0,.19-.06.39-.09.58-.15.54-.15,1.09-.29,1.64-.41.23-.05.47-.09.71-.13.56-.11,1.11-.22,1.67-.3.35-.05.7-.08,1.05-.12.46-.05.92-.12,1.38-.15.83-.06,1.67-.09,2.51-.09.69,0,1.37.03,2.05.07.21.01.41.03.62.04.5.04.99.09,1.48.15.2.02.41.04.61.07.61.08,1.21.18,1.81.3.28.06.56.12.85.18.34.07.67.15,1.01.24.33.08.65.17.98.26.28.08.55.17.82.25.6.19,1.2.39,1.79.61.17.06.34.12.51.19h0c7.04,2.76,12.97,7.75,16.87,14.12-5.5,1.53-11.06,2.21-16.87,2.21-.2,0-.4-.02-.6-.03h0c-.18,0-.35-.02-.53-.03Z"/>
    <path class="cls-7" d="m971.89,1157.05c6.79,0,13.17,1.72,18.74,4.74-6.18,9.67-12.62,16.06-18.74,16.73-7.71.84-18.05-2.6-28.78-8.96,7.19-7.69,17.42-12.51,28.78-12.51Z"/>
    <path class="cls-7" d="m940.34,1172.85c6.02-8.04,15.04-13.69,25.39-15.32l6.15,20.99c-11.17-.85-21.65-2.8-31.54-5.67Z"/>
    <path class="cls-7" d="m1023.88,1051.4c.09,1.04.13,2.16.14,3.35-12.84,3.26-40.1,9.04-71.61,9.04-20.33,0-42.42-2.42-63.53-9.47-.03-1.15-.07-2.32-.11-3.5,53.97,18.51,114.86,5.79,135.11.58Z"/>
    <path class="cls-7" d="m585.34,942.12c-9.79-6.26-45.47-29-63.34-39.41.47-.98.95-1.98,1.42-2.98,17.31,10.07,51.65,31.92,62.71,38.99-.27,1.13-.53,2.26-.79,3.4Z"/>
    <path class="cls-7" d="m612.19,668.39c1.69,0,3.1-.1,4.13-.34,14.85-3.38,26.68-18.27,27.18-18.9.57-.72.44-1.77-.28-2.33-.72-.57-1.77-.44-2.34.28-.11.15-11.61,14.6-25.3,17.71-6.19,1.41-31.18-3.01-40.28-4.83-.81-.16-1.62.29-1.89,1.07l-1.13,3.17c-.31.87.15,1.82,1.01,2.12.87.31,1.82-.15,2.12-1.01l.65-1.82c5.6,1.08,25.89,4.87,36.13,4.87Z"/>
    <path class="cls-7" d="m637.61,652.47s-10-12.81-22.86-8.88-24.6,21.2-24.6,21.2c0,0,21.43,3.17,25.8,1.64,4.37-1.53,21.66-13.97,21.66-13.97Z"/>
    <path class="cls-7" d="m613.55,687.28c8.52,0,16.71-4.98,24.44-14.87.31-.39.65-.83.76-.94.64-.65.66-1.7.03-2.35-.64-.65-1.66-.68-2.32-.06-.26.25-.56.62-1.09,1.31-3.25,4.16-13.15,16.81-27.29,12.8-.88-.25-1.8.26-2.05,1.14-.25.88.26,1.8,1.14,2.05,2.14.61,4.27.91,6.37.91Z"/>
    <path class="cls-2" d="m535.79,443.44s.05.96.15,2.76c.02.66.05,1.47.09,2.43.03.43,0,1.08,0,1.68-.02.62,0,1.27-.05,1.98-.21,5.63-1.32,14.17-3.93,24.74-2.56,10.56-6.57,23.06-11.32,36.51-4.75,13.46-10.22,27.89-15.38,42.57-5.13,14.68-9.97,29.63-13.07,44.14-1.55,7.25-2.67,14.37-3.12,21.21-.26,3.41-.27,6.77-.19,9.99.15,3.24.41,6.36.92,9.32.95,5.94,2.77,11.22,4.94,15.55,2.18,4.34,4.76,7.7,7.11,10.18,2.35,2.49,4.41,4.19,5.85,5.29,1.46,1.07,2.24,1.64,2.24,1.64,0,0-.69-.67-1.99-1.91-1.27-1.27-3.07-3.21-5-5.91-1.93-2.69-3.94-6.19-5.42-10.49-1.47-4.29-2.48-9.32-2.62-14.86-.1-2.77.05-5.66.31-8.63.33-2.98.75-6.04,1.41-9.17,1.27-6.26,3.2-12.76,5.57-19.38,4.75-13.24,11.28-26.93,18.18-40.52,6.92-13.59,14.24-27.12,20.9-40.12,6.65-13.01,12.64-25.51,17.1-36.92,2.24-5.69,4.1-11.1,5.56-16.07,1.45-4.97,2.52-9.48,3.2-13.35.2-.95.31-1.89.46-2.76.13-.9.27-1.63.36-2.51.09-.85.18-1.64.25-2.36.06-.67.12-1.28.17-1.83.15-1.8.22-2.76.22-2.76.73-9.07-6.03-17.02-15.1-17.76-9.07-.73-17.02,6.03-17.76,15.1-.06.71-.07,1.41-.04,2.11v.11Z"/>
  </g>
  <g id="Table">
    <path class="cls-5" d="m1284.36,1169.3h-20.15v-10.96h20.15c3,0,5.43,2.43,5.43,5.43v.11c0,3-2.43,5.43-5.43,5.43Z"/>
    <rect class="cls-1" x="732.32" y="925.13" width="85.29" height="85.29" transform="translate(-189.18 188.3) rotate(-12.36)"/>
    <rect class="cls-1" x="1182.45" y="799.48" width="85.29" height="85.29" transform="translate(-1.96 2.86) rotate(-.13)"/>
    <rect class="cls-1" x="1225.2" y="998.14" width="85.29" height="85.29" transform="translate(83.09 2175.25) rotate(-83.14)"/>
    <path class="cls-5" d="m1267.84,828.86h-445.88c-11.17,0-20.58,8.35-21.9,19.44l-33.23,278.2c-1.57,13.12,8.68,24.67,21.9,24.67h445.88c11.17,0,20.58-8.35,21.9-19.44l33.23-278.2c1.57-13.12-8.68-24.67-21.9-24.67Z"/>
    <path class="cls-13" d="m1286.56,828.86h-445.88c-11.17,0-20.58,8.35-21.9,19.44l-33.23,278.2c-1.57,13.12,8.68,24.67,21.9,24.67h445.88c11.17,0,20.58-8.35,21.9-19.44l33.23-278.2c1.57-13.12-8.68-24.67-21.9-24.67Z"/>
    <path class="cls-15" d="m1245.46,1178.62h-636.51c-15.16,0-27.44-12.29-27.44-27.44h691.4c0,15.16-12.29,27.44-27.44,27.44Z"/>
    <path class="cls-5" d="m804.88,1151.18h-223.37c0,15.16,12.29,27.44,27.44,27.44h168.49c15.16,0,27.44-12.29,27.44-27.44Z"/>
    <path class="cls-15" d="m807.45,1151.18h445.88c11.17,0,20.58-8.35,21.9-19.44l27.24-228.03c-42.53,50.84-165.82,137.19-197.19,136.4-34.04-.85,35.74-79.99-3.4-91.9-39.14-11.91-206.17,41.82-310.95,133.38l-5.37,44.93c-1.57,13.12,8.68,24.67,21.9,24.67Z"/>
    <ellipse class="cls-1" cx="1055.74" cy="1003.94" rx="37.7" ry="25.3" transform="translate(-275.08 1596.72) rotate(-67.57)"/>
    <path class="cls-8" d="m1480.33,1214.25h-602.55c-13.02,0-23.57-10.55-23.57-23.57v-12.06h649.69v12.06c0,13.02-10.55,23.57-23.57,23.57Z"/>
    <path class="cls-5" d="m875.5,1214.25H285.02c-13.02,0-23.57-10.55-23.57-23.57v-12.06h637.62v12.06c0,13.02-10.55,23.57-23.57,23.57Z"/>
    <path class="cls-9" d="m107.33,1117.25c0-12.51,10.14-22.65,22.65-22.65,7.18,0,13.57,3.35,17.72,8.57-3.63-7.67-11.41-12.99-20.46-12.99-12.51,0-22.65,10.14-22.65,22.65,0,5.32,1.85,10.21,4.93,14.08-1.39-2.93-2.18-6.2-2.18-9.66Z"/>
    <path class="cls-9" d="m142.09,1112.83c0-1.58-1.28-2.86-2.86-2.86s-2.86,1.28-2.86,2.86,1.28,2.86,2.86,2.86,2.86-1.28,2.86-2.86Z"/>
    <path class="cls-9" d="m119.68,1112.83c0-1.58-1.28-2.86-2.86-2.86s-2.86,1.28-2.86,2.86,1.28,2.86,2.86,2.86,2.86-1.28,2.86-2.86Z"/>
    <path class="cls-9" d="m185.34,1117.25c0-12.51,10.14-22.65,22.65-22.65,7.18,0,13.57,3.35,17.72,8.57-3.63-7.67-11.41-12.99-20.46-12.99-12.51,0-22.65,10.14-22.65,22.65,0,5.32,1.85,10.21,4.93,14.08-1.39-2.93-2.18-6.2-2.18-9.66Z"/>
    <path class="cls-5" d="m356.23,1430.14c-6.67,0-13.38-.72-20.07-2.18-25.55-5.57-62.05-24.44-90.88-82.7-27.59-55.76-41.29-133.96-40.73-232.43,0-.91.75-1.65,1.66-1.65h0c.92,0,1.66.75,1.65,1.67-1.49,262.95,98.35,305.18,128.99,311.86,42.78,9.32,85.68-13.02,104.33-54.36,12.32-27.32,19.9-52.9,25.99-73.46,8.35-28.17,13.86-46.78,25.35-50.71,5.86-2.01,12.63-.04,21.31,6.2,4.06,2.92,9.18,6.79,15.1,11.27,49.18,37.21,164.37,124.37,285.43,124.37,28.53,0,69.64-7.11,103.45-40.99,36.13-36.21,54.38-92.86,54.22-168.39,0-.92.74-1.66,1.66-1.67h0c.92,0,1.66.74,1.66,1.66.16,76.45-18.41,133.89-55.19,170.75-27.4,27.45-63.98,41.96-105.8,41.96-122.18,0-237.98-87.62-287.43-125.04-5.91-4.47-11.01-8.33-15.03-11.22-7.62-5.48-13.61-7.36-18.29-5.76-9.87,3.38-15.48,22.31-23.24,48.51-6.12,20.66-13.73,46.36-26.15,73.89-9.09,20.15-24.67,36.91-43.89,47.19-13.91,7.45-28.89,11.23-44.11,11.23Z"/>
    <path class="cls-5" d="m219.44,1118.32h-25.62c-3.03,0-5.48-2.45-5.48-5.48s2.45-5.48,5.48-5.48h25.62c3.03,0,5.48,2.45,5.48,5.48s-2.45,5.48-5.48,5.48Z"/>
    <path class="cls-5" d="m491.23,1259.67c-6.91,0-12.33-3.86-12.33-8.79,0-3.07,2.15-5.86,5.77-7.46.38-.17.59-.58.52-.99l-5.86-30.38h-10.13c-.92,0-1.66-.74-1.66-1.66s.74-1.66,1.66-1.66h10.41c1.43,0,2.66,1.02,2.93,2.42l5.91,30.66c.37,1.94-.63,3.86-2.43,4.66-2.37,1.05-3.79,2.7-3.79,4.42,0,2.96,4.12,5.46,9,5.46s9-2.5,9-5.46c0-1.72-1.42-3.37-3.79-4.42-1.69-.75-2.75-2.55-2.59-4.37,0-.06.01-.11.02-.17l6.04-30.78c.27-1.39,1.5-2.41,2.93-2.41h10.39c.92,0,1.66.74,1.66,1.66s-.74,1.66-1.66,1.66h-10.11l-5.97,30.39c0,.34.23.79.63.97,3.61,1.6,5.77,4.39,5.77,7.46,0,4.93-5.41,8.79-12.33,8.79Z"/>
    <rect class="cls-11" x="513.24" y="1178.62" width="8.41" height="35.63"/>
    <path class="cls-1" d="m1503.9,1180.31h-284.4c-.92,0-1.66-.74-1.66-1.66s.74-1.66,1.66-1.66h284.4c.92,0,1.66.74,1.66,1.66s-.74,1.66-1.66,1.66Z"/>
    <path class="cls-5" d="m1268.63,1180.3c-.32,0-.54,0-.66-.01h-294.42c-.92,0-1.66-.74-1.66-1.66s.74-1.66,1.66-1.66h294.47s.09,0,.13,0c.57.04,14.1.88,16.18-13.38.13-.91.98-1.54,1.88-1.41.91.13,1.54.98,1.41,1.88-2.22,15.28-15.66,16.24-18.99,16.24Z"/>
  </g>
</svg>